Coordinates
version=1
nRows=13
nColumns=40
inDegrees=yes

Units are S.I. units (second, meters, Newtons, ...)
Angles are in degrees.

endheader
time	pelvis_tilt	pelvis_list	pelvis_rotation	pelvis_tx	pelvis_ty	pelvis_tz	hip_flexion_r	hip_adduction_r	hip_rotation_r	knee_angle_r	knee_angle_r_beta	ankle_angle_r	subtalar_angle_r	mtp_angle_r	hip_flexion_l	hip_adduction_l	hip_rotation_l	knee_angle_l	knee_angle_l_beta	ankle_angle_l	subtalar_angle_l	mtp_angle_l	lumbar_extension	lumbar_bending	lumbar_rotation	arm_flex_r	arm_add_r	arm_rot_r	elbow_flex_r	pro_sup_r	wrist_flex_r	wrist_dev_r	arm_flex_l	arm_add_l	arm_rot_l	elbow_flex_l	pro_sup_l	wrist_flex_l	wrist_dev_l
      0.44000000	     -2.35768776	     -2.89006467	      5.30890934	     -0.41566961	      0.88849111	      1.10965435	     20.12545180	      0.66684951	    -13.99132976	    -26.46012570	     -0.46181631	      5.04835898	     -6.86152268	      6.92676697	     10.39734942	      6.99962968	      1.43956033	    -60.52625939	     -1.05638251	    -11.84355400	     16.28838913	      0.13478969	     -1.87144014	      3.40873340	     -9.06780465	     -2.57865969	     -8.04260765	    -16.97894668	     20.83027670	     89.95437384	      0.00000000	      0.00000000	      3.39639215	     10.53213057	     11.63910157	     37.51098345	     89.95437384	      0.00000000	      0.00000000
      0.45000000	     -2.26072226	     -2.99576284	      5.20289876	     -0.40677964	      0.88909689	      1.11140586	     19.29520850	      1.03923672	    -13.94051327	    -26.30402482	     -0.45909184	      5.57877744	     -6.62752945	      6.73411287	     11.71392682	      7.29283637	      1.61498215	    -62.26178580	     -1.08667316	    -10.96923097	     17.56013072	      0.59211263	     -2.04435375	      3.50214493	     -8.60326625	     -2.25261280	     -8.13771559	    -16.95949521	     21.34246927	     89.95437384	      0.00000000	      0.00000000	      2.92199594	     10.38077217	     11.37929318	     36.54883295	     89.95437384	      0.00000000	      0.00000000
      0.46000000	     -2.16078391	     -3.02398529	      5.05090194	     -0.39796545	      0.88970974	      1.11314428	     18.47622168	      1.35256332	    -13.78257909	    -26.15346955	     -0.45646415	      6.11654029	     -6.45292410	      6.53673151	     12.99715777	      7.48584441	      1.86146867	    -63.83412080	     -1.11411558	     -9.96928555	     18.23915988	      1.17479005	     -2.23649874	      3.50951584	     -8.07237626	     -1.92705456	     -8.23999805	    -16.88241127	     21.89054187	     89.95437384	      0.00000000	      0.00000000	      2.53844342	     10.18104986	     11.32308981	     35.47298962	     89.95437384	      0.00000000	      0.00000000
      0.47000000	     -1.96423004	     -2.75660027	      4.86041136	     -0.38916282	      0.89050392	      1.11462108	     17.56505896	      1.28248123	    -13.77322226	    -26.07452173	     -0.45508626	      6.40838316	     -6.40307456	      6.41378556	     14.10183790	      7.41064838	      2.34707299	    -65.08104000	     -1.13587843	     -9.56832271	     18.52199888	      1.38446728	     -2.58182990	      3.19521167	     -7.59738027	     -1.45293218	     -8.31926872	    -16.80718899	     22.28938071	     89.95437384	      0.00000000	      0.00000000	      1.95712933	     10.05924717	     11.27155186	     34.75299706	     89.95437384	      0.00000000	      0.00000000
      0.48000000	     -1.77647740	     -2.62945046	      4.70610643	     -0.38040300	      0.89125889	      1.11608241	     16.67400294	      1.39204745	    -13.59207216	    -25.99043832	     -0.45361872	      6.83608472	     -6.33199420	      6.27055830	     15.23446406	      7.44334805	      2.66525479	    -66.15300382	     -1.15458773	     -8.99969495	     18.89103829	      1.66758492	     -2.88914226	      3.02771087	     -7.12886569	     -0.97208816	     -8.42747120	    -16.73242999	     22.68373120	     89.95437384	      0.00000000	      0.00000000	      1.40327320	      9.92945982	     11.18398359	     33.95700219	     89.95437384	      0.00000000	      0.00000000
      0.49000000	     -1.92511409	     -2.82231381	      4.45499047	     -0.37198726	      0.89146875	      1.11757859	     16.10251883	      2.05382293	    -12.58338020	    -25.60236789	     -0.44684562	      7.24495342	     -7.16850092	      5.27763374	     16.96952910	      7.64146839	      2.97188215	    -67.62040603	     -1.18019873	     -4.87583293	     18.73849649	     21.86496089	     -2.80793710	      3.23391422	     -6.43239109	     -0.74680558	     -8.66647863	    -16.57489409	     23.39411249	     89.95437384	      0.00000000	      0.00000000	      1.17630634	      9.60526105	     11.28595981	     32.55326643	     89.95437384	      0.00000000	      0.00000000
      0.50000000	     -1.76963973	     -2.57349839	      4.30991362	     -0.36332054	      0.89216181	      1.11874582	     15.26172423	      1.94429222	    -12.59234472	    -25.54499715	     -0.44584431	      7.51291224	     -7.11424506	      5.17562395	     18.08580233	      7.46861362	      3.30439737	    -68.26031670	     -1.19136727	     -4.38457444	     18.89291402	     21.56739833	     -3.10193236	      2.93318370	     -6.03915830	     -0.19890580	     -8.76938318	    -16.47820358	     23.73545729	     89.95437384	      0.00000000	      0.00000000	      0.55224848	      9.51272308	     11.25242820	     31.85384991	     89.95437384	      0.00000000	      0.00000000
      0.51000000	     -1.69504350	     -2.48454260	      4.16109206	     -0.35456481	      0.89276911	      1.11990516	     14.38144954	      2.11688763	    -12.12994190	    -25.24231490	     -0.44056151	      8.25383926	     -6.96659471	      4.98097142	     19.19984039	      7.34105062	      3.43962279	    -68.68218935	     -1.19873034	     -2.50698168	     18.93999295	     21.33924358	     -3.23125521	      2.80905112	     -5.56077435	      0.27408136	     -8.95258110	    -16.26378366	     24.04740476	     89.95437384	      0.00000000	      0.00000000	      0.23447339	      9.33546815	     11.28482057	     30.48498393	     89.95437384	      0.00000000	      0.00000000
      0.52000000	     -1.55263141	     -2.36960633	      3.88270463	     -0.34577227	      0.89344688	      1.12101431	     13.45037173	      2.21703628	    -11.79071277	    -24.98337977	     -0.43604224	      8.62051484	     -6.85156845	      4.78442223	     20.17678569	      7.32266117	      3.89026624	    -68.86961098	     -1.20200147	     -0.95409856	     18.93085960	     21.51687158	     -3.46319626	      2.67463293	     -5.04390932	      0.75596210	     -9.15016409	    -16.01342342	     24.51298729	     89.95437384	      0.00000000	      0.00000000	     -0.25305888	      9.06039537	     11.74099609	     29.44127679	     89.95437384	      0.00000000	      0.00000000
      0.53000000	     -1.51740857	     -2.16719369	      3.78388584	     -0.33720757	      0.89395119	      1.12183447	     12.60743261	      2.15073529	    -11.61004637	    -24.69513856	     -0.43101148	      9.05584655	     -6.70686363	      4.62362276	     21.30888129	      7.03053175	      4.06378744	    -68.84643557	     -1.20159698	      0.34996206	     18.88907298	     21.32980983	     -3.57406383	      2.42811345	     -4.68928231	      1.28865537	     -9.30791430	    -15.86623802	     24.82670154	     89.95437384	      0.00000000	      0.00000000	     -0.69608072	      8.91789504	     11.83513663	     28.35252794	     89.95437384	      0.00000000	      0.00000000
      0.54000000	     -1.47660997	     -1.98535059	      3.66844015	     -0.32860205	      0.89440874	      1.12268436	     11.73875627	      2.08629532	    -11.55375003	    -24.35616522	     -0.42509528	      9.50115186	     -6.47532325	      4.46097509	     22.38566538	      6.81863800	      4.32571973	    -68.57380201	     -1.19683863	      1.53125800	     18.83984258	     21.15757987	     -3.69057747	      2.19027993	     -4.35554433	      1.79886186	     -9.44373223	    -15.74869847	     25.21327207	     89.95437384	      0.00000000	      0.00000000	     -1.19205473	      8.80281330	     11.90683428	     27.33742951	     89.95437384	      0.00000000	      0.00000000
      0.55000000	     -1.35435928	     -1.75052557	      3.48298305	     -0.32024878	      0.89498180	      1.12337074	     10.80067270	      1.92739973	    -11.56691904	    -24.03917450	     -0.41956274	      9.91914796	     -6.01279851	      4.17745193	     23.30380604	      6.55196518	      4.69774716	    -68.01164696	     -1.18702717	      2.71377711	     18.79092106	     21.12770394	     -3.95414414	      1.92625885	     -3.91533178	      2.28788506	     -9.62379516	    -15.64597905	     25.71855626	     89.95437384	      0.00000000	      0.00000000	     -1.52175188	      8.55982616	     12.44863898	     26.23735174	     89.95437384	      0.00000000	      0.00000000
      0.56000000	     -1.43525086	     -1.62445773	      3.40289208	     -0.31155057	      0.89505618	      1.12413419	     10.13686504	      1.86798642	    -11.77334207	    -23.83345364	     -0.41597224	     10.20381232	     -5.94483214	      4.07856502	     24.46678845	      6.48257119	      5.08641530	    -67.30886183	     -1.17476125	      3.07993997	     18.78677831	     20.88889473	     -3.90078529	      1.72514976	     -3.69760436	      2.80191288	     -9.71050352	    -15.60060872	     26.11110512	     89.95437384	      0.00000000	      0.00000000	     -2.26431080	      8.52592706	     12.39630354	     25.65431648	     89.95437384	      0.00000000	      0.00000000
